<svg xmlns="http://www.w3.org/2000/svg" width="24" height="28" viewBox="685 512 24 28"><path d="M691.14 536.999a7.95 7.95 0 0 0 5.86 3 6.33 6.33 0 0 0 .864-.059c1.832-.252 3.589-1.306 5.126-3.085a15.1 15.1 0 0 0 1.371-1.873 19.655 19.655 0 0 0 2.156-4.879l.058-.199H709v-6.135h-1.643l-.011-.267a15.744 15.744 0 0 0-.618-3.805 11.483 11.483 0 0 0-2.627-4.671C702.253 513.074 699.73 512 697 512h-10.364v12.11l-.136.08a3.083 3.083 0 0 0-1.5 2.647c0 1.394.928 2.612 2.256 2.96l.15.04.044.152a20.236 20.236 0 0 0 .038.132c.733 2.508 1.99 5.016 3.653 6.878Zm6.405 1.865.318-.054c1.425-.246 2.823-1.082 4.081-2.433a12.007 12.007 0 0 0 .559-.645 15.237 15.237 0 0 0 1.934-3.16 19.832 19.832 0 0 0 1.194-3.368l.107-.416h2.171v-3.904h-1.636v-.558a14.953 14.953 0 0 0-.752-4.846c-.685-1.998-1.815-3.607-3.3-4.708a8.48 8.48 0 0 0-4.38-1.62l-.296-.026v20.682h3.273v1.116h-3.273v3.94Zm-9.18-9.677a19.444 19.444 0 0 0 1.492 3.99 14.794 14.794 0 0 0 1.636 2.55 10.688 10.688 0 0 0 1.632 1.648c.657.526 1.34.92 2.037 1.174a5.65 5.65 0 0 0 .974.26l.319.055v-3.974l-.219-.044c-1.68-.351-2.923-1.819-3.044-3.547h1.094a2.787 2.787 0 0 0 1.805 2.35l.364.131v-15.59H691v3.02l-3.273 3.347v.317l-.363.132a1.95 1.95 0 0 0-1.273 1.83c0 1.018.783 1.869 1.783 1.937l.391.027.1.387Zm-.638-6.207 2.182-2.231v-3.673h6.546v-3.961h-8.728v9.865Zm15.273.22v-1.105h1.09v1.104H703Zm-3.273 0v-1.105h1.091v1.104h-1.09Z" fill="#1397c3" fill-rule="evenodd" data-name="shape"/></svg>